# xmcd CD database file
#
# Track frame offsets:
#	150
#	35087
#	74141
#	106486
#	137764
#	162690
#	209737
#	248817
#	289169
#	322190
#	338347
#
# Disc length: 4655 seconds
#
# Revision: 1
# Processed by: cddbd v1.5.2PL0 Copyright (c) Steve Scherf et al.
# Submitted via: CDex 1.51
#
DISCID=b9122d0b
DTITLE=Various Artist - Jazz - The Birth of Funk
DYEAR=2017
DGENRE=Jazz
TTITLE0=Eddie Harris - Listen Here - 1967
TTITLE1=Herbie Mann - Comin Home Baby - 1962
TTITLE2=Herbie Hancock - Watermelon man - 1962
TTITLE3=Eddie Harris - Sham Time - 1967
TTITLE4=Duke Pearson Trio - Jeannine - 1961
TTITLE5=Lee Morgan - The Sidewinder - 1963
TTITLE6=John Coltrane - Equinox - 1964
TTITLE7=Les McCann and Eddie Harris - Compared To What - 1969
TTITLE8=Horace Silver - Song for My Father - 1963
TTITLE9=Bobby Timmons - This Here - 1960
TTITLE10=Dave Brubeck - Rude Old Man - 1966
EXTD=YEAR: 2017
EXTT0=
EXTT1=
EXTT2=
EXTT3=
EXTT4=
EXTT5=
EXTT6=
EXTT7=
EXTT8=
EXTT9=
EXTT10=
PLAYORDER=
